<svg xmlns="http://www.w3.org/2000/svg" width="800" height="1100" viewBox="0 0 800 1100">
  <rect width="800" height="1100" fill="#f3f4f6"/>
  <rect x="20" y="20" width="760" height="1060" fill="#ffffff" stroke="#cbd5e1" stroke-width="3"/>
  <rect x="40" y="50" width="720" height="60" fill="#e2e8f0"/>
  <text x="60" y="90" font-size="20" fill="#334155" font-family="Arial, sans-serif">PDF SNAPSHOT</text>
  <g fill="#e5e7eb">
    <rect x="60" y="150" width="660" height="18"/>
    <rect x="60" y="182" width="520" height="18" fill="#d1d5db"/>
    <rect x="60" y="214" width="660" height="18"/>
    <rect x="60" y="246" width="660" height="18"/>
    <rect x="60" y="278" width="520" height="18" fill="#d1d5db"/>
    <rect x="60" y="310" width="660" height="18"/>
    <rect x="60" y="342" width="660" height="18"/>
    <rect x="60" y="374" width="520" height="18" fill="#d1d5db"/>
    <rect x="60" y="406" width="660" height="18"/>
    <rect x="60" y="438" width="660" height="18"/>
    <rect x="60" y="470" width="520" height="18" fill="#d1d5db"/>
    <rect x="60" y="502" width="660" height="18"/>
    <rect x="60" y="534" width="660" height="18"/>
    <rect x="60" y="566" width="520" height="18" fill="#d1d5db"/>
    <rect x="60" y="598" width="660" height="18"/>
    <rect x="60" y="630" width="660" height="18"/>
    <rect x="60" y="662" width="520" height="18" fill="#d1d5db"/>
    <rect x="60" y="694" width="660" height="18"/>
    <rect x="60" y="726" width="660" height="18"/>
    <rect x="60" y="758" width="520" height="18" fill="#d1d5db"/>
  </g>
  <rect x="580" y="880" width="140" height="140" fill="none" stroke="#ef4444" stroke-width="4"/>
  <text x="615" y="955" font-size="28" fill="#ef4444" font-family="Arial, sans-serif">PDF</text>
</svg>
